Baby TV - Dieren op de boerderij

******************************

Categorie: Beeld
Formaat: DVD5
Bron: Anders (einde van de filmpjes zijn helaas niet compleet)
Ondertitels: Geen
Genre: Animatie, kinderen 0-4 jaar

BabyTV presenteert een vrolijke serie voor baby's en peuters tot vier jaar. Elke dvd is een verzameling van korte BabyTV afleveringen over één bepaald thema. De onderwerpen zijn aangepast aan de ontwikkelingsbehoeften van de allerkleinsten en samengesteld door kinderpsychologen, pedagogen en ervaren programmamakers. Alle afleveringen zijn leerzaam en leuk! 

Dieren op de boerderij
Beleef een leuk avontuur op de boerderij! Ontmoet dieren, leer hun namen en luister naar hun geluiden. Deze dvd biedt je kind een leerzame ontmoeting met boerderijdieren.

Kleuren Leren
Reis met de schattige figuurtjes van BabyTV mee door een magische wereld. Met verhaaltjes en liedjes leert je kind spelenderwijs de kleuren kennen.

Lekker Slapen
Maak je klaar voor de nacht, samen met je vriendjes van BabyTV . Op deze dvd is een mooie collectie slaapliedjes en bedtijdverhaaltjes samengebracht.

Samen Spelen
Ontdek hoe het is om te helpen, te knuffelen, te delen, samen te werken en samen te spelen. Met deze dvd maakt je kind kennis met sociale vaardigheden.

Taal: Nederlands, duur ongeveer 115 minuten.

******************************
Video en Audio informatie:
******************************
Video
ID                               : 224 (0xE0)
Format                           : MPEG Video
Format version                   : Version 2
Format profile                   : Main@Main
Format settings, BVOP            : Yes
Format settings, Matrix          : Default
Format settings, GOP             : M=3, N=12
Duration                         : 27mn 1s
Bit rate mode                    : Variable
Bit rate                         : 5 000 Kbps
Nominal bit rate                 : 9 500 Kbps
Width                            : 720 pixels
Height                           : 576 pixels
Display aspect ratio             : 4:3
Frame rate                       : 25.000 fps
Standard                         : PAL
Color space                      : YUV
Chroma subsampling               : 4:2:0
Bit depth                        : 8 bits
Scan type                        : Interlaced
Scan order                       : Bottom Field First
Bits/(Pixel*Frame)               : 0.482
Stream size                      : 967 MiB (94%)
Writing library                  : (c) 1998-2010 Womble Multimedia, Inc. / MPEG Video Wizard (01/2010) / Jan 17 2010

Audio
ID                               : 128 (0x80)
Format                           : AC-3
Format/Info                      : Audio Coding 3
Mode extension                   : CM (complete main)
Duration                         : 27mn 1s
Bit rate mode                    : Constant
Bit rate                         : 192 Kbps
Channel(s)                       : 2 channels
Channel positions                : Front: L R
Sampling rate                    : 48.0 KHz
Bit depth                        : 16 bits
Stream size                      : 37.1 MiB (4%)

******************************

Hornigold TBS